<svg width="163" height="40" viewBox="0 0 163 40" fill="none" xmlns="http://www.w3.org/2000/svg">
<path d="M21.0228 27.7372H11.6215C11.4884 27.7372 11.3997 27.7815 11.311 27.8702C11.2223 27.9589 11.178 28.0476 11.178 28.1807V30.6197C11.178 30.7527 11.2223 30.8414 11.311 30.9301C11.3997 31.0188 11.4884 31.0631 11.6215 31.0631H17.6969V34.3004C16.943 34.8326 16.1004 35.276 15.2135 35.5864C14.0605 36.0299 12.8631 36.2516 11.6215 36.2516C10.2467 36.2516 8.91634 35.9412 7.6303 35.3647C6.43296 34.8326 5.45734 33.9013 4.8365 32.7926C4.12696 31.4179 3.81654 29.9101 3.86089 28.358C3.86089 26.9833 4.12696 25.6086 4.65911 24.3669C4.96954 23.6573 5.45734 22.9922 5.9895 22.46C6.61034 21.8392 7.40857 21.3514 8.25115 21.0409C9.31545 20.6418 10.4241 20.4644 11.5771 20.5088C12.5527 20.5088 13.5727 20.6862 14.5039 21.0409C15.2578 21.307 15.8787 21.7948 16.4108 22.3713C16.943 23.0808 17.3421 23.8791 17.5638 24.7217C17.6525 24.9434 17.8742 25.0764 18.096 24.9877L20.7567 24.3225C20.8454 24.2782 20.9785 24.2338 21.0228 24.1452C21.0672 24.0565 21.1115 23.9234 21.0672 23.8347C20.7567 22.5487 20.1359 21.307 19.2933 20.287C18.4064 19.3114 17.2978 18.5576 16.0561 18.1141C14.5926 17.5819 13.0849 17.3602 11.5328 17.3602C9.44849 17.3159 7.36423 17.7593 5.50169 18.6906C3.72785 19.5775 2.30877 20.9966 1.42185 22.7704C0.490584 24.5886 0.00277484 26.5842 0.00277484 28.6241C-0.0415713 30.6197 0.446238 32.6153 1.42185 34.3448C2.39747 36.0743 3.86089 37.449 5.63473 38.2916C7.54161 39.2228 9.67022 39.6663 11.7988 39.6663C13.4396 39.6663 15.0804 39.4002 16.6769 38.8237C18.3177 38.2472 19.8698 37.4046 21.2446 36.3403C21.3332 36.2516 21.4219 36.1186 21.4219 35.9856V28.3137C21.4219 27.9146 21.2446 27.7372 21.0228 27.7372Z" fill="#BE2026"/>
<path d="M79.3588 27.7372H69.9574C69.8244 27.7372 69.7357 27.7815 69.647 27.8702C69.5583 27.9589 69.5139 28.0476 69.5139 28.1807V30.6197C69.5139 30.7527 69.5583 30.8414 69.647 30.9301C69.7357 31.0188 69.8244 31.0631 69.9574 31.0631H76.0328V34.3004C75.2789 34.8326 74.4363 35.276 73.5494 35.5864C72.3964 36.0299 71.1991 36.2516 69.9574 36.2516C68.5827 36.2516 67.2523 35.9412 65.9662 35.3647C64.7689 34.8326 63.7933 33.9013 63.1724 32.7926C62.4629 31.4179 62.1525 29.9101 62.1968 28.358C62.1968 26.9833 62.4629 25.6086 62.9951 24.3669C63.3055 23.6573 63.7933 22.9922 64.3254 22.46C64.9463 21.8392 65.7445 21.3514 66.5871 21.0409C67.6514 20.6418 68.76 20.4644 69.913 20.5088C70.8887 20.5088 71.9086 20.6862 72.8399 21.0409C73.5938 21.307 74.2146 21.7948 74.7468 22.3713C75.2789 23.0808 75.678 23.8791 75.8998 24.7217C75.9885 24.9434 76.2102 25.0764 76.4319 24.9877L79.0927 24.3225C79.1814 24.2782 79.3144 24.2338 79.3588 24.1452C79.4031 24.0565 79.4474 23.9234 79.4031 23.8347C79.0927 22.5487 78.4718 21.307 77.6293 20.287C76.7423 19.3114 75.6337 18.5576 74.392 18.1141C72.9286 17.5819 71.4208 17.3602 69.8687 17.3602C67.7844 17.3159 65.7002 17.7593 63.8376 18.6906C62.0638 19.5775 60.6447 20.9966 59.7578 22.7704C58.8265 24.5886 58.3387 26.5842 58.3387 28.6241C58.2944 30.6197 58.7822 32.6153 59.7578 34.3448C60.7334 36.0743 62.1968 37.449 63.9707 38.2916C65.8775 39.2228 68.0062 39.6663 70.1348 39.6663C71.7756 39.6663 73.4164 39.4002 75.0128 38.8237C76.6536 38.2472 78.2058 37.4046 79.5805 36.3403C79.6692 36.2516 79.7579 36.1186 79.7579 35.9856V28.3137C79.7579 27.9146 79.5805 27.7372 79.3588 27.7372Z" fill="black"/>
<path d="M33.5098 23.8348C33.5098 23.8348 33.4654 23.8348 33.4654 23.7904C32.5785 23.2583 31.5142 22.9479 30.4942 22.9479C29.7847 22.9479 29.1195 23.1253 28.4987 23.5244C28.0995 23.7905 27.7004 24.1896 27.4344 24.5887V23.7018C27.4344 23.48 27.257 23.2583 26.9909 23.2583H24.5519C24.3301 23.2583 24.1084 23.4357 24.1084 23.7018V38.7351C24.1084 38.8681 24.1527 38.9568 24.2414 39.0455C24.3301 39.1342 24.4188 39.1785 24.5519 39.1785H27.257C27.4787 39.1785 27.7004 39.0012 27.7004 38.7351V30.8415C27.7004 29.8659 27.8335 28.9346 28.1439 28.0033C28.2769 27.5155 28.5874 27.1164 28.9865 26.806C29.3856 26.5399 29.8734 26.3625 30.3612 26.3625C30.982 26.3625 31.6029 26.5399 32.135 26.8503C32.3124 26.9834 32.5785 26.8947 32.7115 26.7173L32.7559 26.6286L33.6872 24.2783C33.7758 24.1896 33.6872 23.9678 33.5098 23.8348Z" fill="#BE2026"/>
<path d="M55.2062 17.5819H52.5011C52.2794 17.5819 52.0577 17.7593 52.0577 18.0254V24.4112C51.6585 24.1008 51.2594 23.8347 50.816 23.613C49.9291 23.1695 48.9978 22.9921 48.0222 22.9921C46.6918 22.9921 45.3614 23.3469 44.2084 24.0121C43.0554 24.7216 42.1685 25.7859 41.6363 27.0276C41.0598 28.358 40.7938 29.8214 40.7938 31.2849C40.7494 32.7483 41.1042 34.2117 41.725 35.5421C42.3015 36.7394 43.2328 37.7594 44.3858 38.4689C45.5388 39.1785 46.8248 39.5332 48.1552 39.5332C49.663 39.5776 51.1264 39.0454 52.235 38.0255V38.7793C52.235 38.9124 52.2794 39.0011 52.3681 39.0898C52.4568 39.1785 52.5455 39.2228 52.6785 39.2228H55.2062C55.428 39.2228 55.6497 39.0454 55.6497 38.7793V18.0254C55.6054 17.7593 55.428 17.5819 55.2062 17.5819ZM51.1707 35.3647C50.5055 36.1629 49.4412 36.6064 48.4213 36.6064C47.357 36.6064 46.3814 36.1186 45.7162 35.3203C44.9623 34.4334 44.5188 33.0587 44.5188 31.2849C44.5188 29.511 44.9179 28.0476 45.6275 27.205C46.2927 26.4068 47.3126 25.9633 48.3326 25.9633C49.4412 25.9633 50.4612 26.4068 51.1264 27.2494C51.8803 28.1363 52.2794 29.5554 52.2794 31.5066C52.2794 33.1917 51.9246 34.5221 51.1707 35.3647Z" fill="#BE2026"/>
<path fill-rule="evenodd" clip-rule="evenodd" d="M38.5158 21.3517H35.8106C35.5446 21.3517 35.3672 21.13 35.3672 20.9082V18.0257C35.3672 17.7597 35.5889 17.5823 35.8106 17.5823H38.5158C38.7818 17.5823 38.9592 17.804 38.9592 18.0257V20.9082C38.9592 21.1743 38.7375 21.3517 38.5158 21.3517Z" fill="#BE2026"/>
<path fill-rule="evenodd" clip-rule="evenodd" d="M38.4718 39.1788H35.8111C35.545 39.1788 35.3232 38.9571 35.3232 38.691V23.7464C35.3232 23.4803 35.545 23.2585 35.8111 23.2585H38.4718C38.7379 23.2585 38.9596 23.4803 38.9596 23.7464V38.691C38.9596 38.9571 38.7379 39.1788 38.4718 39.1788Z" fill="#BE2026"/>
<path fill-rule="evenodd" clip-rule="evenodd" d="M155.572 0L152.867 1.50776L150.384 3.01554C149.63 3.459 148.876 3.90245 148.078 4.39026L145.949 5.6763C145.993 5.98672 146.082 6.34149 146.126 6.69626C146.259 7.45015 146.348 8.24837 146.393 9.0466C146.393 9.31268 146.437 9.6231 146.437 9.88918C146.437 10.0666 146.481 10.2439 146.481 10.377C148.166 9.53441 149.852 8.69183 151.581 7.89361C153.621 6.91799 155.661 5.98672 157.745 5.05545C157.435 4.12418 157.08 3.19292 156.681 2.26165C156.326 1.55212 155.971 0.79823 155.572 0ZM143.067 7.36145L141.248 8.47011L139.563 9.57876C138.499 10.2439 137.479 10.9535 136.459 11.6187C136.459 11.9291 136.459 12.2395 136.37 12.5943C136.326 12.816 136.326 13.0377 136.282 13.2595C136.282 13.3925 136.282 13.5256 136.237 13.6586C136.149 14.4125 136.06 15.2107 135.927 16.0089C137.08 15.3437 138.189 14.7229 139.342 14.1021C140.628 13.3925 141.914 12.683 143.244 12.0178V10.6874C143.244 10.2883 143.244 9.88917 143.2 9.49006C143.2 8.82487 143.111 8.20403 143.067 7.53883V7.36145ZM129.275 16.7185C130.96 15.4768 132.645 14.2794 134.33 13.0821C134.286 13.3925 134.242 13.7029 134.197 14.0134V14.1021C134.153 14.4125 134.109 14.7229 134.064 15.0777C134.02 15.4324 133.931 15.7872 133.887 16.1863C133.843 16.5854 133.754 16.9846 133.665 17.3837L132.202 18.2706L130.827 19.1575C129.984 19.6897 129.098 20.2662 128.255 20.8427C128.344 20.4879 128.477 20.0888 128.565 19.734C128.654 19.3792 128.743 19.0245 128.831 18.6697C129.009 18.0045 129.142 17.3393 129.275 16.7185ZM131.891 20.5322L133.399 19.6897V19.734C133.31 20.1775 133.177 20.6209 133.044 21.0644C132.778 22.04 132.512 23.06 132.202 24.0356C132.069 24.5677 131.891 25.0999 131.714 25.6764C130.694 26.1198 129.585 26.652 128.654 27.0955C127.723 27.5389 126.792 28.0267 125.905 28.4702C126.082 27.938 126.259 27.4502 126.437 26.9624C126.614 26.4746 126.792 26.0312 126.925 25.5433C127.235 24.7008 127.501 23.8139 127.767 22.9713C129.142 22.1287 130.517 21.3305 131.891 20.5322ZM130.96 28.5589C129.896 28.958 128.876 29.3571 127.856 29.8006C126.836 30.244 125.993 30.6431 125.062 31.0866C124.308 33.1265 123.554 35.1664 122.8 37.2064C122.623 37.6942 122.446 38.182 122.224 38.6698C122.091 38.9359 122.002 39.2463 121.869 39.5567C122.313 39.4237 122.8 39.2906 123.244 39.1576C124.264 38.8915 125.239 38.6698 126.259 38.4481C126.792 38.3594 127.368 38.2263 127.9 38.1376C128.211 37.2507 128.477 36.3638 128.787 35.4769C129.053 34.6343 129.319 33.7917 129.585 32.9935C129.851 32.1953 130.073 31.4414 130.295 30.7318C130.472 30.111 130.694 29.4902 130.871 28.8693L130.96 28.5589ZM142.446 25.0555C142.313 25.8981 142.18 26.785 142.047 27.7163C141.914 28.5145 141.781 29.2684 141.647 30.111L141.559 30.6431C141.381 31.6631 141.204 32.7274 140.982 33.8361C140.761 34.9447 140.539 36.1421 140.273 37.3394C139.962 37.3394 139.608 37.3394 139.297 37.3394C138.676 37.3394 138.055 37.3394 137.479 37.3394C136.592 37.3394 135.705 37.3837 134.951 37.4281C134.197 37.4724 133.399 37.5168 132.69 37.5611C131.98 37.6055 131.271 37.6942 130.605 37.7829C131.182 35.9647 131.714 34.1465 132.246 32.3283C132.69 30.7762 133.133 29.2241 133.532 27.672C134.153 27.4502 134.818 27.2285 135.483 27.0068C136.193 26.785 136.858 26.5633 137.612 26.3416C139.208 25.8981 140.805 25.4547 142.446 25.0555ZM151.891 10.2439C154.064 9.31268 156.237 8.42576 158.455 7.53883H158.499C158.898 8.95791 159.253 10.4213 159.519 11.8848C159.918 13.7029 160.229 15.5211 160.495 17.3837C159.031 17.6941 157.523 18.0489 156.237 18.3593C154.951 18.6697 153.71 18.9801 152.512 19.2462C150.428 19.7784 148.344 20.3549 146.259 20.9314C146.304 20.3992 146.348 19.7784 146.348 19.2462C146.348 19.0245 146.393 18.7584 146.393 18.5367V18.3593C146.437 17.6941 146.481 16.9846 146.481 16.4081V14.4568V12.683C147.235 12.3282 147.989 12.0178 148.787 11.663L149.053 11.53C149.852 11.1752 150.65 10.8648 151.448 10.51L151.891 10.2439ZM156.503 22.2617C157.923 22.04 159.43 21.7739 161.027 21.5522C161.16 22.7495 161.293 23.8582 161.426 25.2329C161.559 26.6077 161.648 28.0267 161.781 29.4015C161.869 30.9536 162.002 32.55 162.091 34.1465C162.18 35.876 162.224 37.6498 162.313 39.5124C160.273 39.2019 158.322 38.9359 156.636 38.7141C154.951 38.4924 153.266 38.315 151.847 38.1376C150.428 38.0046 149.009 37.8716 147.767 37.7385C146.526 37.6055 145.373 37.5611 144.22 37.5168C144.619 35.0778 144.973 32.6831 145.284 30.244C145.55 28.2485 145.772 26.2529 145.993 24.2573C146.969 24.0356 147.989 23.8138 149.098 23.5921C150.206 23.3704 151.315 23.1487 152.601 22.9269C153.621 22.7495 154.685 22.5722 155.838 22.3504C156.016 22.3061 156.282 22.3061 156.503 22.2617Z" fill="#BE2026"/>
<path fill-rule="evenodd" clip-rule="evenodd" d="M96.3565 32.5221C96.3122 33.8968 96.4009 35.2716 96.5339 36.6463C96.5339 36.735 96.6226 37.0897 96.6226 37.1341C96.7556 37.6219 96.933 38.1097 97.1991 38.5088C97.2434 38.5532 97.2434 38.6419 97.2434 38.7306C97.2434 38.8636 97.1991 38.9523 97.1104 39.041C97.0217 39.1297 96.933 39.174 96.8 39.174H93.9618C93.7844 39.174 93.6514 39.0853 93.6071 38.9523C93.3853 38.5532 93.2079 38.1097 93.1192 37.6662C92.3654 38.2427 91.5228 38.6862 90.6359 38.9966C89.6159 39.3514 88.5516 39.5288 87.4873 39.5288C85.9352 39.6175 84.3831 39.174 83.1414 38.1984C82.1214 37.3558 81.5449 36.1141 81.5449 34.7838C81.5449 33.9855 81.7667 33.1873 82.1658 32.5221C82.5205 31.8569 83.0527 31.3248 83.6735 30.9256C84.3387 30.5265 85.0039 30.2161 85.7578 30.0387C86.556 29.8613 87.3986 29.7283 88.2412 29.6396C89.7489 29.5066 91.2567 29.2405 92.7201 28.8857C92.7201 28.8857 92.7201 28.2205 92.7201 28.0431C92.6758 27.511 92.5428 27.1119 91.9663 26.6241C91.4341 26.1363 90.5028 25.9145 89.2611 25.9145C88.0195 25.9145 87.0882 26.1363 86.556 26.5797C86.1126 26.9345 85.6248 27.6884 85.4917 28.4423C85.4474 28.664 85.2256 28.797 85.0039 28.7527L82.3432 28.3979C82.2101 28.3536 82.1214 28.3092 82.0771 28.2205C82.0327 28.1318 81.9884 27.9988 82.0327 27.9101C82.2545 26.8901 82.6979 25.9589 83.3188 25.1606C84.0283 24.3624 84.9152 23.8303 85.9352 23.5198C87.1325 23.1207 88.4186 22.9433 89.7046 22.9433C90.902 22.899 92.0549 23.0764 93.2079 23.4312C94.0062 23.6529 94.7157 24.0963 95.2922 24.6728C95.78 25.205 96.0904 25.8702 96.2235 26.5797C96.3565 27.378 96.4009 28.2205 96.3565 29.0188V32.5221ZM85.27 34.7394C85.27 34.3846 85.3587 34.0742 85.5804 33.7638C85.8021 33.4534 86.1126 33.2316 86.4673 33.0986C87.2212 32.8769 87.9751 32.6995 88.729 32.6108C90.0594 32.4778 91.3898 32.2117 92.7201 31.8569V32.2117C92.7645 33.0099 92.6314 33.8081 92.321 34.562C91.9663 35.2272 91.3897 35.8037 90.6802 36.1585C89.882 36.5576 88.9951 36.7793 88.0638 36.735C87.3099 36.7793 86.556 36.6019 85.9352 36.1585C85.4917 35.8481 85.27 35.3159 85.27 34.7394Z" fill="black"/>
<path fill-rule="evenodd" clip-rule="evenodd" d="M118.071 24.8991C118.249 25.1652 118.736 25.9191 118.958 26.806C119.224 27.8703 119.18 29.0233 119.18 29.5111V38.7351C119.18 38.8681 119.136 38.9568 119.047 39.0455C118.958 39.1342 118.87 39.1786 118.736 39.1786H115.987C115.765 39.1786 115.544 39.0012 115.544 38.7351V29.6442C115.544 29.1564 115.499 28.1807 115.277 27.4712C115.1 27.0277 114.745 26.673 114.346 26.4512C113.814 26.1852 113.238 26.0521 112.661 26.0521C111.641 26.0078 110.666 26.3626 109.912 26.9834C109.158 27.5599 108.803 28.8016 108.803 30.5754V38.7795C108.803 39.0012 108.626 39.2229 108.36 39.2229H105.654C105.521 39.2229 105.433 39.1786 105.344 39.0899C105.255 39.0012 105.211 38.9125 105.211 38.7795V23.7461C105.211 23.5244 105.388 23.3027 105.654 23.3027H108.093C108.315 23.3027 108.537 23.4801 108.537 23.7461V24.7217C109.779 23.5244 111.508 22.9036 113.238 22.9479C114.213 22.9479 115.189 23.1253 116.076 23.4801C116.83 23.7461 117.539 24.2339 118.071 24.8991Z" fill="black"/>
<path fill-rule="evenodd" clip-rule="evenodd" d="M102.036 21.3516H99.3312C99.0651 21.3516 98.8877 21.1298 98.8877 20.9081V18.0256C98.8877 17.7595 99.1094 17.5822 99.3312 17.5822H102.036C102.302 17.5822 102.48 17.8039 102.48 18.0256V20.9081C102.48 21.1742 102.302 21.3516 102.036 21.3516Z" fill="black"/>
<path fill-rule="evenodd" clip-rule="evenodd" d="M102.036 39.1788H99.3755C99.1094 39.1788 98.8877 38.9571 98.8877 38.691V23.7464C98.8877 23.4803 99.1094 23.2585 99.3755 23.2585H102.036C102.302 23.2585 102.524 23.4803 102.524 23.7464V38.691C102.48 38.9571 102.258 39.1788 102.036 39.1788Z" fill="black"/>
</svg>
