<svg width="290" height="70" viewBox="0 0 290 70" fill="none" xmlns="http://www.w3.org/2000/svg">
<g clip-path="url(#clip0_964_1947)">
<path d="M172.945 28.5453C178.025 28.5453 182.143 25.4566 182.143 21.6464C182.143 17.8363 178.025 14.7476 172.945 14.7476C167.864 14.7476 163.746 17.8363 163.746 21.6464C163.746 25.4566 167.864 28.5453 172.945 28.5453Z" stroke="#303038" stroke-width="4.49872" stroke-miterlimit="10"/>
<path d="M164.127 7.65735C166.414 5.74961 169.267 4.66754 172.233 4.58301C180.309 4.8772 182 9.95207 182 16.5567L182.131 21.5581" stroke="#303038" stroke-width="4.49872" stroke-miterlimit="10"/>
<path d="M203.444 29.4273C203.444 23.8769 203.444 15.8257 203.444 5.27393M203.444 5.27393H214.669M203.444 5.27393H192.219" stroke="#303038" stroke-width="4.49872" stroke-miterlimit="10"/>
<path d="M285.574 29.4272V16.0266C285.574 9.65727 281.041 4.49414 275.37 4.49414C269.699 4.49414 265.165 9.65727 265.165 16.0266V29.4272" stroke="#303038" stroke-width="4.49872" stroke-miterlimit="10"/>
<path d="M128.368 29.5004V16.0998C128.368 9.73051 123.834 4.56738 118.163 4.56738C112.492 4.56738 107.958 9.73051 107.958 16.0998V29.5004" stroke="#303038" stroke-width="4.49872" stroke-miterlimit="10"/>
<path d="M148.675 29.5004V16.0998C148.675 9.73051 144.141 4.56738 138.47 4.56738C132.799 4.56738 128.266 9.73051 128.266 16.0998V28.8826" stroke="#303038" stroke-width="4.49872" stroke-miterlimit="10"/>
<path d="M237.645 28.3835C244.198 28.3835 249.511 23.0227 249.511 16.4098C249.511 9.79686 244.198 4.43604 237.645 4.43604C231.091 4.43604 225.778 9.79686 225.778 16.4098C225.778 23.0227 231.091 28.3835 237.645 28.3835Z" stroke="#303038" stroke-width="4.49872" stroke-miterlimit="10"/>
<path d="M80.0713 28.3835C86.625 28.3835 91.9378 23.0227 91.9378 16.4098C91.9378 9.79686 86.625 4.43604 80.0713 4.43604C73.5176 4.43604 68.2048 9.79686 68.2048 16.4098C68.2048 23.0227 73.5176 28.3835 80.0713 28.3835Z" stroke="#303038" stroke-width="4.49872" stroke-miterlimit="10"/>
<path d="M56.2771 4.49414C53.2459 4.49414 50.3389 5.70916 48.1955 7.87192C46.0521 10.0347 44.848 12.968 44.848 16.0266L44.7605 29.4272" stroke="#303038" stroke-width="4.49872" stroke-miterlimit="10"/>
<path d="M16.0009 28.03C22.3936 28.03 27.5759 22.8009 27.5759 16.3504C27.5759 9.90001 22.3936 4.6709 16.0009 4.6709C9.60829 4.6709 4.42603 9.90001 4.42603 16.3504C4.42603 22.8009 9.60829 28.03 16.0009 28.03Z" stroke="#303038" stroke-width="4.49872" stroke-miterlimit="10"/>
<path d="M16.3946 4.75928C13.2203 4.75928 10.1761 6.03164 7.93153 8.29646C5.68699 10.5613 4.42603 13.633 4.42603 16.836V37.1796" stroke="#303038" stroke-width="4.49872" stroke-miterlimit="10"/>
</g>
<path d="M95.1322 66.8984V54.6094H96.2806L96.4056 55.7734C97.1556 54.8776 98.0567 54.4297 99.1087 54.4297C99.89 54.4297 100.551 54.625 101.093 55.0156C101.635 55.4062 102.033 55.9349 102.288 56.6016C102.549 57.2682 102.679 58.0469 102.679 58.9375C102.679 59.7917 102.538 60.5521 102.257 61.2188C101.976 61.8802 101.562 62.4036 101.015 62.7891C100.473 63.1693 99.8379 63.3594 99.1087 63.3594C98.5567 63.3594 98.0384 63.237 97.5541 62.9922C97.0697 62.7422 96.6817 62.4141 96.39 62.0078C96.4212 62.5703 96.4369 63.1172 96.4369 63.6484V66.8125L95.1322 66.8984ZM98.9291 62.2578C99.3249 62.2578 99.6791 62.1693 99.9916 61.9922C100.304 61.8099 100.557 61.5625 100.749 61.25C100.942 60.9375 101.088 60.5833 101.187 60.1875C101.286 59.7865 101.335 59.3542 101.335 58.8906C101.335 57.9115 101.13 57.1094 100.718 56.4844C100.307 55.8542 99.7051 55.5391 98.9134 55.5391C97.2572 55.5391 96.4291 56.6094 96.4291 58.75C96.4291 59.9115 96.6218 60.7865 97.0072 61.375C97.3978 61.9635 98.0384 62.2578 98.9291 62.2578ZM107.194 62.3047C107.814 62.3047 108.358 62.1354 108.827 61.7969C109.301 61.4531 109.606 60.9922 109.741 60.4141V58.9688C109.715 58.9688 109.556 58.9818 109.265 59.0078C108.978 59.0339 108.791 59.0495 108.702 59.0547C107.572 59.1536 106.783 59.3385 106.335 59.6094C105.892 59.8802 105.671 60.3151 105.671 60.9141C105.671 61.3724 105.806 61.7188 106.077 61.9531C106.348 62.1875 106.72 62.3047 107.194 62.3047ZM110.03 63.1797C109.952 62.8464 109.877 62.487 109.804 62.1016C109.33 62.5755 108.884 62.9036 108.468 63.0859C108.051 63.2682 107.562 63.3594 106.999 63.3594C106.197 63.3594 105.551 63.151 105.062 62.7344C104.577 62.3125 104.335 61.7083 104.335 60.9219C104.335 60.0469 104.666 59.3984 105.327 58.9766C105.994 58.5547 106.952 58.2917 108.202 58.1875C108.374 58.1719 108.632 58.151 108.976 58.125C109.325 58.0938 109.585 58.0703 109.757 58.0547V57.2969C109.757 56.6927 109.616 56.2448 109.335 55.9531C109.054 55.6615 108.611 55.5156 108.007 55.5156C107.163 55.5156 106.312 55.724 105.452 56.1406C105.426 56.0781 105.358 55.8984 105.249 55.6016C105.14 55.2995 105.082 55.1432 105.077 55.1328C105.457 54.9193 105.908 54.75 106.429 54.625C106.955 54.4948 107.489 54.4297 108.03 54.4297C109.098 54.4297 109.866 54.6641 110.335 55.1328C110.809 55.5964 111.046 56.388 111.046 57.5078V63.1797H110.03ZM117.46 54.5312C117.694 54.5312 117.908 54.5469 118.1 54.5781L118.053 55.7812C117.814 55.7396 117.606 55.7188 117.428 55.7188C116.699 55.7188 116.106 55.974 115.647 56.4844C115.194 56.9896 114.967 57.6172 114.967 58.3672V63.1797H113.663C113.658 57.9193 113.655 55.0625 113.655 54.6094H114.741L114.866 56.1484C115.163 55.6641 115.54 55.2734 115.999 54.9766C116.457 54.6797 116.944 54.5312 117.46 54.5312ZM122.498 63.3359C121.655 63.3359 121.056 63.1302 120.702 62.7188C120.347 62.3073 120.16 61.6432 120.139 60.7266V55.5781H118.866L118.92 54.7188L120.131 54.6094L120.577 52.6484L121.436 52.6172V54.6094H123.819V55.5781H121.436V60.4922C121.436 61.1432 121.535 61.6016 121.733 61.8672C121.931 62.1328 122.269 62.2656 122.748 62.2656C122.92 62.2656 123.293 62.224 123.866 62.1406L123.92 63.1719C123.301 63.2812 122.827 63.3359 122.498 63.3359ZM125.631 63.1797V54.6094H126.725L126.889 55.8359C127.227 55.4141 127.649 55.0755 128.154 54.8203C128.665 54.5599 129.214 54.4297 129.803 54.4297C130.792 54.4297 131.524 54.7083 131.998 55.2656C132.472 55.8177 132.709 56.6693 132.709 57.8203V63.1797H131.404C131.404 59.7422 131.402 57.901 131.397 57.6562C131.376 56.9271 131.227 56.3932 130.951 56.0547C130.68 55.7161 130.225 55.5469 129.584 55.5469C128.912 55.5469 128.352 55.7083 127.904 56.0312C127.456 56.3542 127.165 56.7734 127.029 57.2891C126.977 57.638 126.951 58.0391 126.951 58.4922V63.1797H125.631ZM140.138 56.1953C139.758 55.737 139.235 55.5078 138.568 55.5078C137.901 55.5078 137.357 55.7448 136.935 56.2188C136.513 56.6875 136.266 57.3307 136.193 58.1484H140.717C140.717 57.2995 140.524 56.6484 140.138 56.1953ZM138.826 63.3594C137.581 63.3594 136.599 62.9635 135.881 62.1719C135.167 61.3802 134.81 60.2969 134.81 58.9219C134.81 57.5938 135.157 56.5182 135.849 55.6953C136.542 54.8672 137.454 54.4453 138.584 54.4297C139.646 54.4297 140.487 54.7943 141.107 55.5234C141.732 56.2474 142.045 57.2161 142.045 58.4297C142.045 58.4922 142.042 58.6068 142.037 58.7734C142.037 58.9401 142.037 59.0599 142.037 59.1328H136.154C136.17 60.1068 136.42 60.8672 136.904 61.4141C137.394 61.9557 138.05 62.2266 138.873 62.2266C139.779 62.2266 140.688 61.987 141.599 61.5078L141.802 62.5625C140.933 63.0938 139.941 63.3594 138.826 63.3594ZM148.021 54.5312C148.255 54.5312 148.469 54.5469 148.662 54.5781L148.615 55.7812C148.375 55.7396 148.167 55.7188 147.99 55.7188C147.261 55.7188 146.667 55.974 146.208 56.4844C145.755 56.9896 145.529 57.6172 145.529 58.3672V63.1797H144.224C144.219 57.9193 144.216 55.0625 144.216 54.6094H145.302L145.427 56.1484C145.724 55.6641 146.102 55.2734 146.56 54.9766C147.018 54.6797 147.505 54.5312 148.021 54.5312ZM155.107 56.1953C154.726 55.737 154.203 55.5078 153.536 55.5078C152.87 55.5078 152.325 55.7448 151.903 56.2188C151.482 56.6875 151.234 57.3307 151.161 58.1484H155.685C155.685 57.2995 155.492 56.6484 155.107 56.1953ZM153.794 63.3594C152.549 63.3594 151.568 62.9635 150.849 62.1719C150.135 61.3802 149.778 60.2969 149.778 58.9219C149.778 57.5938 150.125 56.5182 150.818 55.6953C151.51 54.8672 152.422 54.4453 153.552 54.4297C154.614 54.4297 155.456 54.7943 156.075 55.5234C156.7 56.2474 157.013 57.2161 157.013 58.4297C157.013 58.4922 157.01 58.6068 157.005 58.7734C157.005 58.9401 157.005 59.0599 157.005 59.1328H151.122C151.138 60.1068 151.388 60.8672 151.872 61.4141C152.362 61.9557 153.018 62.2266 153.841 62.2266C154.747 62.2266 155.656 61.987 156.568 61.5078L156.771 62.5625C155.901 63.0938 154.909 63.3594 153.794 63.3594ZM162.489 62.2344C163.348 62.2344 163.986 61.9583 164.403 61.4062C164.825 60.8542 165.036 60.0651 165.036 59.0391C165.036 57.8828 164.833 57.013 164.427 56.4297C164.026 55.8411 163.374 55.5469 162.473 55.5469C162.072 55.5469 161.718 55.6328 161.411 55.8047C161.104 55.9766 160.856 56.2161 160.669 56.5234C160.481 56.8307 160.338 57.1849 160.239 57.5859C160.145 57.9818 160.098 58.4167 160.098 58.8906C160.098 59.5573 160.179 60.1354 160.341 60.625C160.507 61.1146 160.773 61.5052 161.137 61.7969C161.502 62.0885 161.953 62.2344 162.489 62.2344ZM165.059 61.9375C164.778 62.3698 164.403 62.7135 163.934 62.9688C163.466 63.224 162.942 63.3516 162.364 63.3516C161.234 63.3516 160.348 62.9505 159.708 62.1484C159.067 61.3411 158.747 60.2448 158.747 58.8594C158.747 57.5365 159.072 56.4688 159.723 55.6562C160.374 54.8385 161.247 54.4297 162.341 54.4297C162.908 54.4297 163.442 54.5547 163.942 54.8047C164.447 55.0495 164.825 55.3802 165.075 55.7969L165.052 55.0547V51.2812L166.341 51.2031V63.1797H165.231L165.059 61.9375ZM180.652 63.1797C179.449 59.3359 178.705 56.9427 178.418 56C178.257 56.5729 178.072 57.1927 177.863 57.8594C177.655 58.526 177.473 59.099 177.317 59.5781C177.16 60.0573 176.957 60.6771 176.707 61.4375C176.457 62.1979 176.267 62.7786 176.137 63.1797H174.731L172.285 54.6094H173.637L175.473 61.625C175.728 60.7917 176.478 58.4531 177.723 54.6094H179.199C180.439 58.5365 181.168 60.8672 181.387 61.6016L183.199 54.6094H184.535L182.067 63.1797H180.652ZM187.66 54.6094V63.1797H186.347V54.6094H187.66ZM187.66 51.4922V53.0391H186.347V51.4922H187.66ZM193.175 63.3359C192.332 63.3359 191.733 63.1302 191.378 62.7188C191.024 62.3073 190.837 61.6432 190.816 60.7266V55.5781H189.542L189.597 54.7188L190.808 54.6094L191.253 52.6484L192.113 52.6172V54.6094H194.496V55.5781H192.113V60.4922C192.113 61.1432 192.212 61.6016 192.41 61.8672C192.608 62.1328 192.946 62.2656 193.425 62.2656C193.597 62.2656 193.97 62.224 194.542 62.1406L194.597 63.1719C193.977 63.2812 193.503 63.3359 193.175 63.3359ZM202.081 63.1797V58C202.081 57.1406 201.943 56.5156 201.667 56.125C201.396 55.7344 200.92 55.5391 200.238 55.5391C199.581 55.5391 199.027 55.7031 198.573 56.0312C198.126 56.3594 197.834 56.7839 197.698 57.3047C197.652 57.6953 197.628 58.1302 197.628 58.6094V63.1797H196.323V51.2812L197.628 51.2031V54.6875C197.628 54.9844 197.618 55.3516 197.597 55.7891C198.331 54.8828 199.305 54.4297 200.519 54.4297C202.43 54.4297 203.386 55.5521 203.386 57.7969V63.1797H202.081ZM209.659 61.2734C210.862 61.8672 212.151 62.1641 213.526 62.1641C215.219 62.1641 216.065 61.3932 216.065 59.8516C216.065 59.3516 215.93 58.9479 215.659 58.6406C215.393 58.3281 214.906 58.0833 214.198 57.9062L211.901 57.3281C210.146 56.8854 209.268 55.9479 209.268 54.5156C209.268 53.4167 209.646 52.6016 210.401 52.0703C211.156 51.5339 212.2 51.2656 213.534 51.2656C214.232 51.2656 214.885 51.3411 215.495 51.4922C216.104 51.6432 216.614 51.8464 217.026 52.1016L216.635 53.2031C216.286 53.0104 215.823 52.8385 215.245 52.6875C214.672 52.5365 214.091 52.4609 213.503 52.4609C211.617 52.4609 210.674 53.1146 210.674 54.4219C210.674 54.8646 210.818 55.2214 211.104 55.4922C211.396 55.7578 211.831 55.9609 212.409 56.1016L214.604 56.6328C215.542 56.8568 216.253 57.2161 216.737 57.7109C217.221 58.2005 217.463 58.8984 217.463 59.8047C217.463 60.9818 217.101 61.8698 216.378 62.4688C215.659 63.0625 214.68 63.3594 213.44 63.3594C212.513 63.3594 211.687 63.2656 210.963 63.0781C210.245 62.8854 209.674 62.6589 209.253 62.3984L209.659 61.2734ZM222.283 63.3359C221.44 63.3359 220.841 63.1302 220.487 62.7188C220.132 62.3073 219.945 61.6432 219.924 60.7266V55.5781H218.651L218.705 54.7188L219.916 54.6094L220.362 52.6484L221.221 52.6172V54.6094H223.604V55.5781H221.221V60.4922C221.221 61.1432 221.32 61.6016 221.518 61.8672C221.716 62.1328 222.054 62.2656 222.533 62.2656C222.705 62.2656 223.078 62.224 223.651 62.1406L223.705 63.1719C223.086 63.2812 222.612 63.3359 222.283 63.3359ZM229.26 54.5312C229.494 54.5312 229.708 54.5469 229.9 54.5781L229.853 55.7812C229.614 55.7396 229.406 55.7188 229.228 55.7188C228.499 55.7188 227.906 55.974 227.447 56.4844C226.994 56.9896 226.768 57.6172 226.768 58.3672V63.1797H225.463C225.458 57.9193 225.455 55.0625 225.455 54.6094H226.541L226.666 56.1484C226.963 55.6641 227.34 55.2734 227.799 54.9766C228.257 54.6797 228.744 54.5312 229.26 54.5312ZM233.884 62.3047C234.504 62.3047 235.048 62.1354 235.517 61.7969C235.991 61.4531 236.296 60.9922 236.431 60.4141V58.9688C236.405 58.9688 236.246 58.9818 235.955 59.0078C235.668 59.0339 235.481 59.0495 235.392 59.0547C234.262 59.1536 233.473 59.3385 233.025 59.6094C232.582 59.8802 232.361 60.3151 232.361 60.9141C232.361 61.3724 232.496 61.7188 232.767 61.9531C233.038 62.1875 233.41 62.3047 233.884 62.3047ZM236.72 63.1797C236.642 62.8464 236.567 62.487 236.494 62.1016C236.02 62.5755 235.574 62.9036 235.158 63.0859C234.741 63.2682 234.252 63.3594 233.689 63.3594C232.887 63.3594 232.241 63.151 231.752 62.7344C231.267 62.3125 231.025 61.7083 231.025 60.9219C231.025 60.0469 231.356 59.3984 232.017 58.9766C232.684 58.5547 233.642 58.2917 234.892 58.1875C235.064 58.1719 235.322 58.151 235.666 58.125C236.015 58.0938 236.275 58.0703 236.447 58.0547V57.2969C236.447 56.6927 236.306 56.2448 236.025 55.9531C235.744 55.6615 235.301 55.5156 234.697 55.5156C233.853 55.5156 233.002 55.724 232.142 56.1406C232.116 56.0781 232.048 55.8984 231.939 55.6016C231.83 55.2995 231.772 55.1432 231.767 55.1328C232.147 54.9193 232.598 54.75 233.119 54.625C233.645 54.4948 234.179 54.4297 234.72 54.4297C235.788 54.4297 236.556 54.6641 237.025 55.1328C237.499 55.5964 237.736 56.388 237.736 57.5078V63.1797H236.72ZM240.009 60.3203V54.6094H241.322V60.3359C241.322 60.7109 241.374 61.0286 241.478 61.2891C241.587 61.5495 241.741 61.7526 241.939 61.8984C242.142 62.0391 242.368 62.1406 242.618 62.2031C242.874 62.2656 243.165 62.2969 243.493 62.2969C244.171 62.2969 244.697 62.1484 245.072 61.8516C245.452 61.5547 245.642 61.0495 245.642 60.3359V54.6094H246.954V60.3203C246.954 60.7578 246.892 61.151 246.767 61.5C246.642 61.849 246.473 62.1406 246.259 62.375C246.051 62.6042 245.798 62.7943 245.501 62.9453C245.204 63.0964 244.889 63.2057 244.556 63.2734C244.228 63.3411 243.874 63.375 243.493 63.375C243.118 63.375 242.764 63.3411 242.431 63.2734C242.098 63.2057 241.78 63.0964 241.478 62.9453C241.181 62.7891 240.923 62.5964 240.704 62.3672C240.491 62.1328 240.322 61.8411 240.197 61.4922C240.072 61.1432 240.009 60.7526 240.009 60.3203ZM260.102 63.1797V58.7188C260.102 58.3021 260.092 57.9531 260.071 57.6719C260.056 57.3906 260.014 57.1042 259.946 56.8125C259.884 56.5208 259.793 56.2917 259.673 56.125C259.558 55.9531 259.397 55.8151 259.188 55.7109C258.98 55.6016 258.73 55.5469 258.438 55.5469C257.866 55.5469 257.376 55.7005 256.97 56.0078C256.569 56.3151 256.282 56.7474 256.11 57.3047C256.063 57.6797 256.04 58.0807 256.04 58.5078V63.1797H254.735V58.5781C254.735 58.1927 254.722 57.8594 254.696 57.5781C254.67 57.2917 254.621 57.0156 254.548 56.75C254.475 56.4792 254.376 56.2604 254.251 56.0938C254.131 55.9271 253.97 55.7943 253.767 55.6953C253.563 55.5964 253.321 55.5469 253.04 55.5469C252.415 55.5469 251.889 55.7057 251.462 56.0234C251.04 56.3411 250.756 56.763 250.61 57.2891C250.563 57.6901 250.54 58.125 250.54 58.5938V63.1797H249.235C249.225 57.8203 249.22 54.9635 249.22 54.6094H250.313L250.477 55.8359C250.738 55.4401 251.108 55.1068 251.587 54.8359C252.066 54.5651 252.61 54.4297 253.22 54.4297C253.537 54.4297 253.829 54.4635 254.095 54.5312C254.366 54.5938 254.589 54.6745 254.767 54.7734C254.949 54.8724 255.11 54.9922 255.251 55.1328C255.392 55.2682 255.501 55.4036 255.579 55.5391C255.657 55.6693 255.722 55.8073 255.774 55.9531C256.399 54.9375 257.355 54.4297 258.642 54.4297C259.595 54.4297 260.293 54.7031 260.735 55.25C261.183 55.7917 261.407 56.5964 261.407 57.6641V63.1797H260.102ZM265.876 62.3047C266.495 62.3047 267.04 62.1354 267.508 61.7969C267.982 61.4531 268.287 60.9922 268.423 60.4141V58.9688C268.396 58.9688 268.238 58.9818 267.946 59.0078C267.659 59.0339 267.472 59.0495 267.383 59.0547C266.253 59.1536 265.464 59.3385 265.016 59.6094C264.574 59.8802 264.352 60.3151 264.352 60.9141C264.352 61.3724 264.488 61.7188 264.758 61.9531C265.029 62.1875 265.402 62.3047 265.876 62.3047ZM268.712 63.1797C268.633 62.8464 268.558 62.487 268.485 62.1016C268.011 62.5755 267.566 62.9036 267.149 63.0859C266.732 63.2682 266.243 63.3594 265.68 63.3594C264.878 63.3594 264.232 63.151 263.743 62.7344C263.258 62.3125 263.016 61.7083 263.016 60.9219C263.016 60.0469 263.347 59.3984 264.008 58.9766C264.675 58.5547 265.633 58.2917 266.883 58.1875C267.055 58.1719 267.313 58.151 267.657 58.125C268.006 58.0938 268.266 58.0703 268.438 58.0547V57.2969C268.438 56.6927 268.298 56.2448 268.016 55.9531C267.735 55.6615 267.292 55.5156 266.688 55.5156C265.844 55.5156 264.993 55.724 264.133 56.1406C264.107 56.0781 264.04 55.8984 263.93 55.6016C263.821 55.2995 263.764 55.1432 263.758 55.1328C264.139 54.9193 264.589 54.75 265.11 54.625C265.636 54.4948 266.17 54.4297 266.712 54.4297C267.779 54.4297 268.548 54.6641 269.016 55.1328C269.49 55.5964 269.727 56.388 269.727 57.5078V63.1797H268.712ZM272.297 63.1797V54.6094H273.391L273.555 55.8359C273.894 55.4141 274.315 55.0755 274.821 54.8203C275.331 54.5599 275.881 54.4297 276.469 54.4297C277.459 54.4297 278.19 54.7083 278.664 55.2656C279.138 55.8177 279.375 56.6693 279.375 57.8203V63.1797H278.071C278.071 59.7422 278.068 57.901 278.063 57.6562C278.042 56.9271 277.894 56.3932 277.617 56.0547C277.347 55.7161 276.891 55.5469 276.25 55.5469C275.578 55.5469 275.019 55.7083 274.571 56.0312C274.123 56.3542 273.831 56.7734 273.696 57.2891C273.644 57.638 273.617 58.0391 273.617 58.4922V63.1797H272.297ZM281.867 63.1797V54.6094H282.961L283.125 55.8359C283.464 55.4141 283.885 55.0755 284.391 54.8203C284.901 54.5599 285.451 54.4297 286.039 54.4297C287.029 54.4297 287.76 54.7083 288.234 55.2656C288.708 55.8177 288.945 56.6693 288.945 57.8203V63.1797H287.641C287.641 59.7422 287.638 57.901 287.633 57.6562C287.612 56.9271 287.464 56.3932 287.188 56.0547C286.917 55.7161 286.461 55.5469 285.82 55.5469C285.148 55.5469 284.589 55.7083 284.141 56.0312C283.693 56.3542 283.401 56.7734 283.266 57.2891C283.214 57.638 283.188 58.0391 283.188 58.4922V63.1797H281.867Z" fill="#6B6B75"/>
<defs>
<clipPath id="clip0_964_1947">
<rect width="290" height="37.1795" fill="white"/>
</clipPath>
</defs>
</svg>
